<?xml version="1.0" encoding="utf-8"?>
<!-- Generator: Adobe Illustrator 23.0.0, SVG Export Plug-In . SVG Version: 6.00 Build 0)  -->
<svg version="1.1" id="Layer_1" xmlns="http://www.w3.org/2000/svg" xmlns:xlink="http://www.w3.org/1999/xlink" x="0px" y="0px"
	 viewBox="0 0 830 448" style="enable-background:new 0 0 830 448;" xml:space="preserve">
<style type="text/css">
	.st0{fill:#18214D;stroke:#18214D;stroke-width:10;stroke-miterlimit:10;}
	.st1{fill:#FFFFFF;}
</style>
<path class="st0" d="M305,330"/>
<g>
	<g>
		<path class="st1" d="M329.7,82.6c2.9,6.9,2.8,14.2-0.3,21.7l-93,228.8c-3.2,7.9-8.2,13.2-15.1,16c-6.8,2.8-14.3,2.6-22.3-0.7
			c-7.7-3.1-13.1-8.1-16.2-15c-3.1-6.9-3.1-14.2,0.1-22.1l93-228.8c3.1-7.5,8.1-12.7,15.2-15.6c7.1-2.9,14.5-2.8,22.2,0.3
			C321.4,70.6,326.8,75.7,329.7,82.6z M544.9,170.1c3,7,3,14.3,0,21.8l-51.3,126.2c-11.5,28.4-26.8,50.1-45.7,65.1s-40,23.7-63.1,26
			c-23.2,2.3-46.8-1.4-70.9-11.2c-23.1-9.4-41.8-22.8-56.3-40.2c-14.5-17.5-23.6-36.8-27.4-58.1c-3.8-21.3-1.3-42.7,7.5-64.2
			l33,13.4c-5.1,12.6-6.2,25.3-3.2,37.9c3,12.6,9.3,24.2,18.8,34.9c9.5,10.6,21.6,19,36.3,24.9c16.1,6.5,31.5,9.3,46.4,8.4
			c14.8-0.9,28.4-6.1,40.8-15.4c12.3-9.3,22.5-23.7,30.4-43.2l51.3-126.2c3.1-7.5,8.1-12.7,15.2-15.6c7.1-2.9,14.5-2.8,22.2,0.3
			C536.4,158.1,541.8,163.1,544.9,170.1z"/>
	</g>
</g>
<g>
	<g>
		<path class="st1" d="M345.7,307.5c-7.4-3.1-12.5-8.1-15.3-15.1c-2.8-6.9-2.7-14.1,0.5-21.5l94.8-224.7c3.3-7.7,8.3-12.9,15.2-15.6
			c6.8-2.6,14-2.4,21.4,0.7c7.7,3.3,12.9,8.2,15.7,14.9c2.7,6.7,2.4,13.9-0.8,21.6l-94.8,224.7c-3.1,7.4-8.1,12.5-14.8,15.4
			C360.7,310.9,353.4,310.7,345.7,307.5z M552.8,394.8c-7.4-3.1-12.5-8.1-15.3-15.1c-2.8-6.9-2.7-14.1,0.5-21.5l52.3-124
			c8.1-19.1,11.1-36.3,9.2-51.3c-2-15.1-7.7-28.1-17.1-39c-9.5-10.9-21.9-19.6-37.3-26.1c-14.1-6-28.1-8.5-41.9-7.6
			c-13.8,0.9-26.1,4.7-36.9,11.4c-10.8,6.7-18.8,16.3-24,28.8l-31.7-13.4c8.9-21.2,22-37.9,39.3-50.2c17.3-12.3,36.8-19.6,58.8-21.8
			c21.9-2.2,44,1.3,66.1,10.7c23.2,9.8,41.8,23.5,56,41.1c14.1,17.6,22.4,38.3,25,61.9c2.5,23.6-2.1,49.4-13.9,77.2l-52.3,124
			c-3.1,7.4-8.1,12.5-15.1,15.3C567.4,398.1,560.2,397.9,552.8,394.8z"/>
	</g>
</g>
<circle class="st1" cx="359.1" cy="211.6" r="19"/>
<circle class="st1" cx="599.9" cy="211.6" r="19"/>
</svg>
